PathFileType	4	(X/Y/Z)	C:/Users/beibeiliu/ov580/test_trc/capture2\sequence.22_training_dense_left.trc
DataRate	CameraRate	NumFrames	NumMarkers	Units	OrigDataRate	OrigDataStartFrame	OrigNumFrames
120	120	22	19	mm	120	143	380
Frame#	Time	ThumbCMC			ThumbMCP			ThumbIP			ThumbTip			IndexMCP			IndexPIP			IndexTip			MiddleMCP			MiddlePIP			MiddleTip			RingMCP			RingPIP			RingTip			PinkyMCP			PinkyPIP			PinkyTip			BackHand1			BackHand2			BackHand3	
		X0	Y0	Z0	X1	Y1	Z1	X2	Y2	Z2	X3	Y3	Z3	X4	Y4	Z4	X5	Y5	Z5	X6	Y6	Z6	X7	Y7	Z7	X8	Y8	Z8	X9	Y9	Z9	X10	Y10	Z10	X11	Y11	Z11	X12	Y12	Z12	X13	Y13	Z13	X14	Y14	Z14	X15	Y15	Z15	X16	Y16	Z16	X17	Y17	Z17	X18	Y18	Z18	
142	1.18333	-122.584	20.539	51.6644	-104.454	28.987	28.3076	-86.0525	43.3596	12.5714	-77.154	57.7498	-2.51241	-100.593	75.4507	6.69187	-96.1997	57.3265	-20.3104	-110.105	29.9965	-10.2484	-117.05	73.8563	-8.93428	-115.433	47.4982	-25.8985	-131.223	27.2574	3.38309	-135.702	72.9163	-15.4877	-132.792	44.1444	-28.3527	-137.596	28.554	3.90211	-163.481	86.5676	-12.2918	-154.532	95.0478	-27.9508	-150.67	109.739	-49.1831	-164.228	68.6645	33.3078	-180.429	51.0889	50.3908	-146.698	53.9623	56.568	
143	1.19167	-121.551	25.8455	47.7272	-104.81	31.6614	23.5215	-85.8727	43.6917	8.15789	-76.1311	58.0854	-8.29043	-99.0992	75.6702	1.18664	-94.3418	58.204	-24.376	-109.524	30.4984	-11.8485	-118.838	75.8475	-16.2793	-117.096	46.6933	-28.8439	-127.658	28.3618	1.55952	-136.614	74.6716	-19.769	-133.448	42.1612	-30.0142	-139.765	28.7325	-3.44026	-163.457	85.6994	-13.283	-153.546	96.9862	-32.2241	-148.126	112.311	-55.6639	-160.682	74.2791	30.792	-179.106	53.8132	47.8854	-144.717	56.638	51.6976	
144	1.2	-120.757	26.4146	44.4709	-99.0834	32.0242	21.4614	-83.0001	43.934	3.75301	-70.5077	57.231	-13.6199	-96.5453	76.3239	-2.09341	-90.8402	54.9929	-25.8145	-108	28.7159	-10.5195	-116.722	77.1439	-16.8948	-114.373	49.6463	-32.314	-125.102	29.4379	-0.406964	-131.233	73.2488	-25.4631	-130.818	46.9529	-33.6347	-141.247	30.7379	-1.27765	-156.749	87.4778	-15.2694	-151.75	99.3517	-38.0118	-148.37	112.087	-54.5699	-157.916	75.6687	28.5563	-175.376	57.0943	47.5115	-138.187	60.226	48.8152	
145	1.20833	-115.417	28.5739	42.3498	-98.011	30.3072	19.8613	-80.0298	42.237	0.798282	-69.0842	53.3393	-15.5946	-90.9663	73.4412	-7.34978	-89.1731	54.3439	-28.3344	-106.405	29.5813	-15.1675	-113.426	76.1439	-17.8491	-113.078	49.0659	-33.6396	-124.475	28.5273	-0.834129	-128.195	75.5492	-22.1957	-129.702	45.5727	-34.0373	-138.038	32.7019	-2.64505	-153.516	94.4785	-20.4063	-148.704	100.684	-38.6588	-142.985	114.441	-58.0296	-156.497	76.9194	25.6992	-172.984	60.9994	46.0741	-135.379	59.1829	49.3024	
146	1.21667	-119.289	27.1483	40.7276	-99.1951	27.3593	18.1901	-76.5239	31.9399	3.14479	-68.9445	46.4102	-15.6754	-88.1856	71.1619	-7.20526	-83.289	51.2933	-27.815	-106.715	25.6282	-11.7276	-105.031	74.0387	-17.0278	-109.127	46.3404	-34.0188	-122.996	27.6827	-5.59835	-122.151	73.5706	-26.4801	-126.171	41.6805	-33.6734	-136.747	30.7558	-7.62662	-147.056	92.5503	-20.702	-138.819	100.346	-37.3498	-131.047	115.059	-57.0369	-150.907	76.9458	25.667	-167.654	63.3684	44.7059	-134.071	61.4272	49.3698	
147	1.225	-116.034	24.1127	39.6147	-95.5311	19.7318	18.7074	-78.8748	29.6356	0.671307	-62.457	37.8439	-16.5534	-81.1457	64.6836	-5.13644	-81.7613	45.3845	-29.4726	-103.753	23.2983	-16.3328	-102.976	69.5068	-20.4863	-105.114	43.1403	-35.2806	-121.768	24.689	-8.35062	-120.615	72.0681	-26.2729	-122.094	41.0106	-34.0767	-136.602	29.9102	-4.39937	-141.379	93.1346	-21.594	-129.754	99.1452	-41.2354	-123.107	112.274	-60.4031	-145.575	79.3761	22.582	-163.646	60.5562	46.8309	-126.964	55.4955	49.0236	
148	1.23333	-115.562	18.0269	41.5885	-95.1922	16.7342	17.2574	-76.9258	21.968	1.03098	-60.2432	28.157	-16.7474	-79.6082	59.0329	-6.16162	-81.9844	40.6604	-31.8544	-107.543	20.6976	-16.4934	-95.6214	63.5399	-18.8264	-103.406	36.4196	-35.1489	-124.674	23.1449	-7.10616	-116.309	67.8759	-28.6306	-120.983	38.5435	-35.6254	-131.313	27.5899	-4.06921	-132.968	89.6161	-21.3599	-121.976	95.9974	-41.632	-114.648	107.523	-63.1025	-138.659	77.542	22.371	-157.779	60.5965	48.3689	-123.401	54.8151	47.4294	
149	1.24167	-116.628	16.6241	39.429	-95.9489	8.07928	18.0774	-72.9199	15.0913	-1.04554	-58.7927	24.4278	-18.7493	-75.2411	51.0745	-12.053	-81.3495	35.2206	-33.6504	-105.651	14.9857	-14.5457	-92.8856	57.9414	-18.7111	-103.783	33.0149	-37.7859	-122.599	18.6816	-3.6435	-108.783	63.0273	-27.397	-120.726	35.0883	-36.5555	-134.645	25.9422	-9.28886	-127.592	85.5891	-21.0213	-120.345	92.1627	-41.3408	-109.304	101.027	-64.8569	-134.432	76.9767	22.2746	-155.752	63.1563	43.8984	-118.39	50.8058	48.0525	
150	1.25	-114.887	15.7421	36.8494	-95.1092	7.58981	14.0411	-76.0384	7.49692	-0.0659553	-59.3274	13.5964	-17.7689	-74.5701	45.849	-10.9313	-79.3231	23.3994	-34.2892	-107.598	13.0712	-18.192	-92.6911	53.0734	-24.8689	-107.606	27.0185	-36.651	-123.151	17.0417	-8.78992	-104.01	57.3582	-30.3553	-119.714	31.8783	-37.4139	-132.403	24.8225	-8.3573	-122.77	86.1984	-24.3529	-112.37	88.2423	-45.4302	-101.865	98.5355	-67.0166	-130.423	72.2265	23.7057	-149.973	61.9006	42.3469	-115.968	49.2045	46.6917	
151	1.25833	-111.761	10.5252	36.4236	-98.2265	6.6671	12.8794	-73.7797	4.83753	-4.24301	-61.9213	11.8998	-21.5008	-73.1522	40.5155	-12.3799	-80.2693	20.4181	-36.3747	-108.436	9.88485	-18.385	-92.1046	50.058	-24.6823	-106.172	23.5445	-39.7304	-123.469	15.9381	-6.40453	-104.841	54.708	-34.6427	-119.627	28.7013	-38.3548	-133.103	22.5489	-11.2683	-116.155	81.4477	-26.5387	-109.741	85.8425	-47.2537	-100.539	93.0425	-66.6424	-126.168	74.9986	18.7747	-147.775	64.0779	39.9556	-114.302	50.3093	39.8705	
152	1.26667	-113.109	9.64859	34.3763	-100.75	-0.138476	13.3079	-77.9345	-1.39291	-4.19129	-63.2655	3.81307	-21.95	-71.573	33.1386	-16.8903	-81.4271	12.8514	-37.3101	-108.944	5.64206	-21.5316	-90.2685	45.3617	-28.8538	-105.109	19.0804	-40.4473	-124.503	15.5718	-8.96063	-103.404	53.0044	-33.4673	-119.856	28.2966	-41.5817	-133.52	24.3713	-8.12044	-116.727	81.6339	-29.4211	-104.147	81.0482	-48.8518	-94.499	87.1808	-70.0596	-124.913	70.891	18.3152	-142.163	62.3101	41.0634	-113.81	47.2403	40.1985	
153	1.275	-114.159	9.6049	32.5554	-97.663	-3.57051	11.7087	-79.3862	-1.0821	-7.55692	-65.4867	-0.306343	-24.1269	-73.7417	33.5903	-18.5013	-84.4664	9.29189	-40.3931	-111.217	6.14616	-19.5605	-86.6292	39.5352	-32.6101	-107.171	18.412	-42.4132	-121.621	13.6409	-8.38751	-104.794	53.755	-36.4177	-121.938	24.8331	-41.7836	-131.532	21.3046	-12.2684	-111.283	76.7377	-29.8323	-102.222	80.5889	-53.7086	-92.0447	85.5561	-72.0821	-119.844	71.888	13.0086	-141.68	63.5744	39.4719	-111.537	46.0016	39.754	
154	1.28333	-113.208	7.69001	31.0751	-95.7101	-6.57233	8.82121	-75.4018	-6.82551	-11.5547	-65.5741	0.0483788	-28.6712	-69.1113	25.868	-23.791	-85.91	10.465	-42.8478	-110.163	4.69431	-23.003	-87.9109	39.7227	-33.4736	-105.886	15.0339	-42.8661	-120.915	13.9316	-6.95362	-99.5553	48.578	-34.8637	-122.772	24.7033	-41.9563	-132.139	22.2842	-11.5108	-109.951	76.8752	-30.7432	-96.229	76.8353	-52.2054	-89.8839	82.6315	-71.7541	-115.262	67.6034	15.3471	-138.34	61.8721	38.7348	-106.058	41.3823	35.8249	
155	1.29167	-114.466	3.74735	31.9923	-98.313	-4.26329	5.75903	-78.5223	-10.023	-11.9131	-61.612	-6.40905	-31.3636	-68.1042	20.8274	-20.7715	-83.3986	2.95732	-43.5709	-109.618	0.921262	-21.7898	-84.3288	35.3549	-33.4935	-107.391	11.2414	-41.1022	-121.738	13.5551	-10.1305	-96.9714	44.7512	-36.9055	-120.32	24.4604	-45.334	-130.514	20.3589	-12.097	-102.095	73.2325	-33.3716	-95.7781	75.2867	-53.8626	-85.0702	80.7221	-72.7902	-110.022	65.2435	15.6767	-132.213	60.316	40.6309	-106.091	41.4841	37.6799	
156	1.3	-111.344	1.59033	28.8034	-98.9687	-7.39464	5.99343	-77.5135	-13.9109	-13.6154	-64.036	-14.5315	-31.1292	-69.0427	20.1642	-27.1029	-84.6448	4.06588	-45.9408	-109.13	0.926041	-23.7635	-84.459	32.7679	-38.1163	-107.121	12.2031	-45.4872	-122.084	13.8401	-10.318	-98.0967	44.1053	-42.3981	-117.766	19.6566	-43.2521	-129.585	20.3067	-11.5193	-101.119	69.1617	-30.7554	-92.638	70.6505	-52.2214	-83.8633	78.9026	-75.3166	-107.36	63.409	12.4082	-127.408	57.7796	36.9085	-101.611	38.8275	32.5064	
157	1.30833	-112.786	-3.13175	30.2397	-102.393	-12.6465	5.81529	-79.8524	-17.692	-15.4744	-66.5104	-13.5077	-34.1383	-67.1959	12.7716	-25.7109	-84.0369	-0.168647	-46.7997	-109.918	-3.13768	-23.0131	-83.7788	31.9769	-36.0888	-107.06	8.58887	-46.3904	-121.407	12.5917	-10.0612	-98.4822	43.0967	-42.1421	-118.436	20.1628	-44.5401	-128.913	20.7411	-11.4462	-98.1055	69.5158	-34.4974	-90.6648	68.5006	-54.0286	-80.2795	69.2927	-77.0877	-105.207	63.5763	10.3299	-126.088	58.8845	35.3698	-100.189	31.7189	34.7377	
158	1.31667	-112.294	-2.77414	26.2031	-99.2292	-16.4162	2.71536	-84.3073	-18.8323	-15.708	-69.3522	-19.4351	-34.2962	-69.2029	10.2782	-30.4912	-88.7775	-4.11248	-48.3618	-112.481	-3.2936	-25.0409	-83.6879	23.8352	-41.0331	-106.877	7.35013	-49.4045	-123.424	9.32577	-15.1675	-97.9812	37.7059	-46.1	-119.47	17.1408	-45.7729	-131.353	18.2215	-15.065	-97.0956	67.1677	-37.5035	-93.5675	67.1611	-56.6189	-82.5354	67.2649	-81.9193	-105.635	58.4516	11.7865	-124.526	57.6453	35.2212	-97.9125	30.0452	32.6848	
159	1.325	-114.544	-7.43561	27.1548	-99.4755	-20.0421	1.23155	-81.889	-23.1922	-19.2134	-69.3848	-23.8866	-37.5711	-70.6184	3.55075	-28.3499	-93.4989	-10.2734	-49.1809	-113.994	-5.23953	-26.8385	-85.8499	23.4647	-39.9128	-113.079	5.52375	-48.5958	-123.862	5.94096	-13.2263	-99.6581	36.2027	-44.7422	-120.97	13.3089	-46.2583	-129.662	14.8512	-13.9913	-97.0615	61.05	-37.6659	-92.3791	58.8069	-58.5647	-82.2372	61.8576	-79.0198	-103.894	57.0363	11.2142	-121.411	55.2318	33.7797	-98.111	29.2226	29.4798	
160	1.33333	-116.248	-9.08686	26.5368	-102.957	-22.4673	1.88449	-85.178	-29.3232	-19.9781	-69.9407	-28.9496	-41.244	-73.1918	2.34118	-34.4958	-93.6041	-12.9826	-51.8488	-116.585	-10.4342	-23.866	-88.2199	15.4847	-43.3881	-114.904	-0.12903	-48.1451	-125.04	4.46467	-11.1098	-99.7962	31.4604	-43.9622	-128.667	11.7523	-45.9707	-133.585	12.5539	-15.7656	-101.392	58.4723	-39.1566	-94.077	57.2357	-65.1158	-83.233	55.8773	-86.0201	-99.8063	50.0216	7.43628	-120.642	47.2438	33.3318	-97.5821	22.9023	31.2484	
161	1.34167	-115.555	-12.0535	26.0014	-104.131	-28.9575	0.860761	-87.6402	-31.8815	-21.5448	-73.5653	-33.6211	-41.2754	-74.4331	-4.39322	-33.2893	-93.7824	-17.9331	-53.086	-117.048	-12.1374	-24.8083	-90.6824	14.6958	-41.7204	-117.967	-1.37165	-49.9298	-127.897	0.98216	-13.8218	-103.265	27.5757	-48.4121	-126.146	7.36476	-47.8151	-134.539	10.1273	-13.621	-103.504	54.2005	-38.9287	-97.0613	50.9615	-61.3374	-90.3172	55.2991	-85.7544	-101.862	47.717	5.18381	-120.793	48.7089	29.8429	-98.1448	23.0269	26.7862	
162	1.35	-115.055	-13.7231	25.3584	-104.937	-29.6996	-0.0955075	-91.4143	-37.5684	-20.0466	-78.721	-36.0216	-39.3961	-75.2388	-8.20273	-34.8823	-101.171	-19.2201	-52.7619	-118.748	-15.5638	-23.6632	-92.3067	9.36814	-46.0442	-119.922	-9.00195	-48.2727	-127.142	-4.73213	-13.6272	-104.718	20.35	-49.1293	-129.304	5.98885	-48.5868	-137.093	5.78579	-16.3739	-102.37	50.9437	-42.2108	-100.024	50.186	-64.258	-90.9165	49.9425	-89.8756	-103.164	45.0945	6.30099	-118.586	44.8994	30.3106	-97.4299	15.6927	29.6044	
163	1.35833	-113.983	-17.1175	24.964	-108.416	-30.0119	1.97885	-89.8011	-37.8821	-23.0326	-80.5447	-40.1429	-39.9314	-77.9188	-9.54153	-36.5032	-101.565	-21.3826	-53.5864	-120.148	-18.5024	-27.2007	-92.8795	5.91876	-45.8591	-119.723	-7.00376	-51.7172	-127.769	-7.41241	-15.8971	-105.548	21.9328	-47.3649	-128.652	2.63539	-50.6963	-135.123	0.808856	-15.7668	-104.844	46.0706	-40.8912	-100.325	45.4135	-63.5558	-95.5554	46.9273	-85.997	-103.388	44.6295	6.71737	-118.977	40.7511	33.0883	-98.808	13.7816	29.359	
